<?xml version="1.0" standalone="no"?>
<!DOCTYPE svg PUBLIC "-//W3C//DTD SVG 1.1//EN" "http://www.w3.org/Graphics/SVG/1.1/DTD/svg11.dtd" >
<!--
2013-9-30: Created.
-->
<svg>
<metadata>
Created by iconfont
</metadata>
<defs>

<font id="iconfont" horiz-adv-x="1024" >
  <font-face
    font-family="iconfont"
    font-weight="500"
    font-stretch="normal"
    units-per-em="1024"
    ascent="896"
    descent="-128"
  />
    <missing-glyph />
    
    <glyph glyph-name="iconqichexiugai" unicode="&#58922;" d="M649.399296 475.726592l-1.399808 0.902144-1.396736-0.902144c-0.357376-0.223232-36.1472-22.98368-56.229888-25.853952l-2.231296-0.324608 0-2.249728c0-0.851968 0.669696-85.315584 59.036672-104.771584l0.821248-0.275456 0.822272 0.275456c58.368 19.456 59.04896 103.92064 59.04896 104.772608l0 2.249728-2.233344 0.324608C685.55264 452.742912 649.76384 475.50336 649.399296 475.726592zM647.999488 347.725568C599.04 364.770048 593.92 432.100096 593.394688 445.118208c19.170304 3.781632 47.883264 21.169152 54.603776 25.356288 6.731776-4.186112 35.434496-21.574656 54.618112-25.356288C702.089216 432.100096 697.009152 364.779264 647.999488 347.725568zM600.835072 440.587008c0 0 0-68.539392 47.164416-84.262912 47.174656 15.72352 47.174656 84.262912 47.174656 84.262912-17.205248 2.46272-47.174656 21.614592-47.174656 21.614592S618.029056 443.049728 600.835072 440.587008zM677.43232 409.267968c0-16.251904-13.180928-29.431808-29.432832-29.431808s-29.431808 13.179904-29.431808 29.431808c0 16.252928 13.179904 29.431808 29.431808 29.431808S677.43232 425.520896 677.43232 409.267968zM362.123264 303.249152c-7.8592 0-14.943232-3.149824-20.032512-8.22272l0-0.069632c-5.131264-5.13024-8.2944-12.21632-8.2944-20.033536 0-7.857152 3.1488-14.943232 8.241152-20.0192l0.053248-0.06656c5.090304-5.075968 12.174336-8.23808 20.032512-8.23808 7.81824 0 14.902272 3.188736 20.020224 8.30464l0.067584 0c5.075968 5.075968 8.237056 12.162048 8.237056 20.0192 0 7.820288-3.175424 14.90432-8.30464 20.033536C377.024512 300.099328 369.941504 303.249152 362.123264 303.249152zM803.127296 562.137856 595.9168 681.766656c-10.912768 6.299648-23.28576 9.616384-35.88096 9.616384l-31.442944 0-31.4368 0c-12.5952 0-24.974336-3.316736-35.88096-9.616384l-207.21664-119.6288c-20.621312-11.902976-33.324032-33.90976-33.324032-57.719808l0-278.532096c0-23.810048 12.703744-45.816832 33.324032-57.718784l207.21664-119.6288c10.906624-6.298624 23.284736-9.616384 35.88096-9.616384l31.4368 0 31.442944 0c12.5952 0 24.968192 3.315712 35.88096 9.616384l207.210496 119.6288c20.620288 11.901952 33.324032 33.908736 33.324032 57.718784L836.451328 504.419072C836.451328 528.22912 823.74656 550.235904 803.127296 562.137856zM769.506304 258.621184c0-6.203392-5.035008-11.225088-11.225088-11.225088l-38.397952 0c-2.496512-4.343808-5.535744-8.3456-9.066496-11.876352l0.027648-0.026624c-10.0864-10.0864-24.026112-16.326656-39.430144-16.326656-15.337472 0-29.248512 6.242304-39.373824 16.326656l-0.0256 0.026624-0.026624 0.04096c-3.501056 3.515392-6.554624 7.489536-9.025536 11.835392L410.591232 247.396096c-2.484224-4.343808-5.551104-8.3456-9.05216-11.876352l0.014336-0.026624c-10.097664-10.0864-24.0384-16.326656-39.42912-16.326656-15.350784 0-29.262848 6.242304-39.38816 16.326656l-0.026624 0.026624-0.027648 0.039936c-3.499008 3.516416-6.540288 7.49056-9.024512 11.836416l-45.237248 0c-6.19008 0-11.226112 5.021696-11.226112 11.225088l0 22.638592 14.265344 0c-0.9216 31.013888 4.994048 72.531968 33.225728 93.543424l49.282048 0c6.163456 13.21984 13.627392 26.058752 22.964224 38.329344 12.203008 16.068608 27.389952 30.94528 46.756864 44.20608l4.236288 2.87744 5.019648 0c63.4112 0 26.64448 0 90.053632 0l5.021696 0 4.236288-2.87744-0.284672-104.482816 3.475456 0L535.446528 476.611328c0 19.070976 14.007296 34.52928 31.269888 34.52928l171.776 0c6.204416 0 11.226112-5.551104 11.226112-12.392448l0-145.999872 5.184512 0c1.154048 0 2.253824-0.448512 3.067904-1.261568 0.799744-0.81408 1.261568-1.913856 1.261568-3.067904l-0.039936-67.156992 10.313728 0L769.506304 258.621184 769.506304 258.621184zM671.41632 303.249152c-7.858176 0-14.928896-3.149824-20.032512-8.22272l0-0.069632c-5.117952-5.13024-8.295424-12.21632-8.295424-20.033536 0-7.857152 3.149824-14.943232 8.254464-20.0192l0.04096-0.06656c5.102592-5.075968 12.17536-8.23808 20.032512-8.23808 7.821312 0 14.915584 3.188736 20.032512 8.30464l0.041984 0c5.101568 5.075968 8.265728 12.162048 8.265728 20.0192 0 7.820288-3.187712 14.90432-8.307712 20.033536C686.332928 300.099328 679.236608 303.249152 671.41632 303.249152zM459.47904 427.314944c0 0-1.655808 0-6.622208 0-3.298304 0-8.062976 0-14.767104 0-14.429184-10.464256-25.842688-21.879808-35.0464-33.985536-4.534272-5.971968-8.578048-12.161024-12.20096-18.526208l83.458048 0-0.067584 52.511744C467.52768 427.314944 462.779392 427.314944 459.47904 427.314944zM566.577152 753.152768c14.128128 0 28.053504-3.73248 40.278016-10.795008l250.353664-144.535552c22.939648-13.242368 37.189632-37.92384 37.189632-64.41472l0-336.509952c0-26.489856-14.249984-51.1744-37.190656-64.41472L606.85312-12.05376c-12.22144-7.061504-26.14784-10.793984-40.275968-10.793984l-37.98528 0-37.98528 0c-14.128128 0-28.055552 3.733504-40.280064 10.795008L199.97696 132.482816c-22.940672 13.241344-37.19168 37.922816-37.19168 64.41472L162.78528 533.407488c0 26.49088 14.251008 51.173376 37.19168 64.41472L450.328576 742.358784c12.223488 7.061504 26.149888 10.793984 40.278016 10.793984l37.98528 0L566.577152 753.152768M566.577152 759.296768l-37.98528 0-37.98528 0c-15.217664 0-30.17216-4.002816-43.352064-11.618304L196.905984 603.143936c-24.91392-14.380032-40.26368-40.963072-40.26368-69.736448l0-336.509952c0-28.773376 15.350784-55.35744 40.26368-69.737472l250.350592-144.534528c13.179904-7.616512 28.133376-11.619328 43.350016-11.619328l37.986304 0 37.98528 0c15.217664 0 30.171136 4.002816 43.350016 11.619328l250.35264 144.534528c24.911872 14.380032 40.261632 40.964096 40.261632 69.737472L900.542464 533.407488c0 28.772352-15.34976 55.356416-40.261632 69.736448L609.927168 747.679488C596.748288 755.293952 581.79584 759.296768 566.577152 759.296768L566.577152 759.296768z"  horiz-adv-x="1024" />

    
    <glyph glyph-name="store" unicode="&#58931;" d="M1024 514.089h-1024l145.742 181.776c49.74 49.24 80.108 61.469 141.123 61.469h450.514c36.697 0 83.098-4.189 140.948-61.469l145.672-181.776zM1024 432.363c-4.898 15.393-9.122 29.821-12.717 41.991h12.717v-41.991zM843.189 272.054c-91.301 2.397-181.323 112.931-181.323 202.301h349.416c-19.943-67.461-71.731-204.814-168.093-202.301zM496.508 272.054c-91.336 0-165.371 112.931-165.371 202.301h330.73c0-89.37-74.046-202.301-165.359-202.301zM165.766 272.054c-114.758 6.667-165.371 112.931-165.371 202.301h330.73c0-89.37-34.638-209.864-165.359-202.301zM167.744 28.541h688.756v161.624h86.1v-282.828c0-44.656-38.547-80.83-86.1-80.83h-688.756c-47.553 0-86.089 36.174-86.089 80.83v282.828h86.089v-161.624z"  horiz-adv-x="1024" />

    
    <glyph glyph-name="xiangyou" unicode="&#59063;" d="M662.592-54.624l319.616 319.616c0 0 9.76 7.008 9.76 22.752s-9.376 22.88-9.376 22.88l-320 320c-12.48 12.512-32.736 12.512-45.248 0-12.512-12.48-12.512-32.736 0-45.248l265.888-265.888-819.456 0c-17.536 0-31.744-14.208-31.744-31.744s14.208-31.744 31.744-31.744h819.008l-265.376-265.376c-12.512-12.48-12.512-32.736 0-45.248 12.48-12.512 32.736-12.512 45.184 0z"  horiz-adv-x="1024" />

    
    <glyph glyph-name="sanhengxian" unicode="&#58917;" d="M128 448l768 0 0-128-768 0 0 128ZM128 704l768 0 0-128-768 0 0 128ZM128 188l768 0 0-128-768 0 0 128Z"  horiz-adv-x="1024" />

    
    <glyph glyph-name="a" unicode="&#58902;" d="M512.726 470.356c33.273-33.794 72.671-63.619 118.188-89.481h-234.565c44.482 26.896 83.275 56.721 116.378 89.481zM637.895 266.566h-250.34v-67.757h250.34v67.757zM959.855 386.047c0-247.371-200.534-447.905-447.905-447.905s-447.905 200.534-447.905 447.905 200.533 447.905 447.905 447.905 447.905-200.534 447.905-447.905zM578.931 642.594c-11.379-42.413-31.899-82.24-61.551-119.48 12.066-8.623 23.275-17.416 33.62-26.379 13.618 17.755 25.862 36.893 36.723 57.413l178.962-0v35.689h-161.893c6.894 16.722 13.1 34.307 18.62 52.758l-44.481 0zM643.585 547.423l-31.552-19.655c17.929-22.758 33.447-44.999 46.551-66.723l34.137 21.207c-13.795 21.375-30.173 43.099-49.137 65.17zM254.627 486.907c10.345-9.31 20.342-19.138 29.999-29.482 28.274 28.965 53.016 61.203 74.222 96.722h169.393v35.689h-149.996c8.445 16.895 16.204 34.48 23.275 52.758h-44.999c-23.449-60.345-57.413-112.238-101.895-155.686zM402.038 547.423l-29.482-18.103c15.86-21.38 29.652-42.069 41.378-62.068l32.585 21.724c-13.447 19.308-28.277 38.793-44.481 58.447zM678.239 302.772h-331.027v-173.272h40.344v33.103h250.34v-32.068h40.344v172.238zM772.893 367.943c-104.827 28.965-185.686 75.516-242.582 139.653h-37.758c-51.036-60.689-131.55-111.379-241.547-152.066 7.929-11.035 15.517-22.931 22.758-35.689 41.896 17.069 80.341 35.948 115.343 56.637v-29.74h247.237v31.034c33.79-18.968 70.861-35.689 111.205-50.172 6.894 12.067 15.342 25.514 25.344 40.344z"  horiz-adv-x="1024" />

    
    <glyph glyph-name="wen" unicode="&#59020;" d="M438.789605 412.420283l152.85534 0 0-124.421754-152.85534 0 0 124.421754ZM512 830.964798C265.148869 830.964798 65.035202 630.851131 65.035202 384S265.148869-62.963775 512-62.963775s446.963775 200.112644 446.963775 446.963775S758.851131 830.964798 512 830.964798zM330.456271 138.906909l-41.295522 0c2.683109 19.838837 3.214205 34.854832 3.214205 61.677734L292.374954 455.862701c0 30.029944-0.530073 40.758286-3.214205 60.604286l41.295522 0c-2.146896-17.699104-2.683109-30.037107-2.683109-60.604286l0-255.278057C327.772138 168.394501 328.309374 154.452977 330.456271 138.906909zM309.536822 612.467435l27.352975 16.625656c34.323737-37.007869 43.97863-48.808636 82.59616-102.43602l-30.037107-19.308765C360.493377 553.467693 356.199585 559.371146 309.536822 612.467435zM446.833815 257.968585c-11.258415 0-37.537941-1.073448-43.435255-2.146896 1.067308 15.545044 1.603521 22.51683 1.603521 43.442418L405.002081 410.273387c0 12.338003-0.537236 21.455661-1.603521 33.787524 12.868075-1.073448 22.522969-1.609661 37.537941-1.609661l145.871275 0c16.631796 0 28.426423 0.537236 39.690978 1.609661-1.073448-12.331863-1.603521-20.912285-1.603521-33.250288l0-121.738645c0-13.411451 0.530073-21.985734 1.603521-32.720216-12.868075 1.073448-20.912285 1.616824-34.323737 1.616824L446.833815 257.968585zM732.691331 556.688038l0-373.808638c0-18.765389-6.440689-30.029944-20.382213-34.854832-7.514137-2.690272-25.737174-4.293793-50.943252-4.293793-3.76372 0-20.925588 0.530073-50.955532 1.603521-3.220345 20.382213-4.293793 26.822902-9.647731 40.222073 30.029944-5.353938 42.899042-6.970762 64.354704-6.970762 27.883047 0 32.707936 2.146896 32.707936 13.941524L697.825242 570.093349 487.59824 570.093349c-23.602557 0-33.787524-0.530073-48.808636-2.676969l0 37.537941c15.022135-2.140757 25.206078-2.676969 47.198975-2.676969l204.334805 0c22.529109 0 32.707936 0.536212 44.515866 2.140757C733.221404 591.011774 732.691331 578.143699 732.691331 556.688038z"  horiz-adv-x="1024" />

    
    <glyph glyph-name="icon" unicode="&#58955;" d="M512.133 271.019l-292.16 292.155c-12.27 12.28-32.186 12.28-44.457 0-12.281-12.27-12.281-32.186 0-44.457l314.388-314.388c12.27-12.28 32.186-12.28 44.457 0l314.387 314.388c6.14 6.136 9.211 14.183 9.211 22.228s-3.071 16.092-9.211 22.228c-12.27 12.28-32.186 12.28-44.457 0l-292.159-292.155z"  horiz-adv-x="1024" />

    
    <glyph glyph-name="dianhua" unicode="&#58943;" d="M654.293328-127.923206c-151.457441 0-332.909432 140.949429-451.537335 350.738495C49.045922 494.686099 52.373672 778.351224 210.333025 868.603655c34.13504 19.486539 73.402495 28.375472 116.087293 26.481214C329.588081 895.584031 332.813439 895.897608 336.109192 895.974402c0.236782 0 1.766268 0.025598 1.983851 0.025598C407.636627 896 471.19666 808.608154 485.953953 692.706447c9.631278-75.591131-4.575657-143.931605-37.974752-182.79589-17.745869-20.644852-40.048196-31.876009-65.019124-32.471165-0.019199 0-2.770992-0.735945-3.692523-1.86866-1.286304-1.580681-2.783791-7.193061-0.787141-18.449816 14.418119-35.619729 31.524036-70.964278 50.850586-105.156913 21.035222-37.187611 44.611054-72.813739 70.119541-105.892858 0.281579-0.319976 0.563158-0.620753 0.857536-0.915131 4.370872-4.953229 7.289053-4.953229 8.690548-4.953229 4.889233 0 10.853586 3.052571 14.424518 5.394795 16.683549 22.839887 44.246282 35.325351 78.298128 35.325351 45.820563 0 100.40207-22.289528 149.780766-61.160213 90.585206-71.341849 127.792016-167.245057 94.674499-227.848511-2.943779-5.401195-3.244557-5.983551-6.169137-11.250356-21.931155-33.635877-47.836412-62.868885-81.043522-81.837062-31.082469-17.765068-66.299028-26.749994-104.689748-26.749994L654.293328-127.923206 654.293328-127.923206zM609.631078 244.714446c-11.896708 0-39.030673-8.12739-46.236532-19.665725-1.612679-2.591806-3.609329-4.921231-5.900357-6.911482-2.643002-2.303827-26.756393-22.40472-57.819664-22.40472-19.59533 0-16.017999 7.769017-30.493713 22.507112-1.59988 1.363098-3.078169 2.905382-4.40287 4.607654-29.751369 38.288328-45.756568 53.845562-70.151539 96.978327-22.359923 39.555433-36.374872 61.940954-52.943229 103.160263-0.678349 1.702272-1.20311 3.46214-1.574282 5.241207-6.252331 30.282529-23.415844 59.144364-8.709747 77.287003 19.268955 23.793415 42.211234 14.680499 44.867035 14.680499 3.084569 0.083194 35.363748 6.009149 46.460515 18.910582 23.665425 27.537135 33.885459 103.672225 26.046047 165.184411C436.92723 797.3386 365.246207 861.858561 328.903332 861.858561c-1.439892-0.051196-2.860585-0.287978-4.249281-0.575957-2.483014-0.473564-5.023623-0.627153-7.557833-0.499163-34.563808 2.060645-66.183836-1.542284-92.985026-16.830738-133.60278-76.320676-126.79369-350.584906 14.853286-601.100517 113.745069-201.156113 274.833787-334.490113 412.237882-334.490113 29.99455 0 57.20531 6.834687 80.864335 20.363273 26.097243 14.917281 53.135215 32.771942 69.300402 60.750644 1.363098 2.361423 13.112617 24.286179 15.59563 28.951429 16.235582 30.448916-14.085344 117.763968-86.035147 174.412519C689.669875 225.317501 644.329275 244.714446 609.631078 244.714446L609.631078 244.714446zM696.856536 417.290303c-1.72787 0-3.628528-0.217584-5.273205 0.499163-16.229183 7.077869-10.092043 25.175712-7.186661 40.963328 2.054246 11.282354-3.673325 28.40107-10.188036 37.808364-6.501912 9.432893-17.931455 19.288153-28.996225 22.26393-13.317401 3.583731-40.841737 12.741444-39.06907 25.098918 2.284629 15.890008 18.00185 17.656276 33.821463 14.776492 26.53881-4.857236 49.59628-19.780916 64.92953-41.974452 15.320451-22.219134 21.086419-49.07152 16.216384-75.59753C718.550909 427.119966 710.615504 417.290303 696.856536 417.290303L696.856536 417.290303zM795.057171 419.389346c-1.740669 0-3.513336 0.166388-5.273205 0.492763-15.787616 2.879784-13.669375 27.889108-10.776792 43.683124 11.877509 64.731145-33.136715 119.024673-95.87121 138.92718-21.46399 6.809089-47.382046 15.314051-44.483064 31.082469 2.892583 15.787616 22.366323 19.089768 38.109142 16.203585 96.26158-17.643477 160.205585-110.308527 142.542909-206.570107C816.738745 429.19341 808.816139 419.389346 795.057171 419.389346L795.057171 419.389346zM906.965578 388.089293c-1.73427 0-3.500537 0.147189-5.273205 0.467165-15.794015 2.905382-14.226133 26.199635-11.33355 41.968052 11.877509 64.807939-2.195035 130.358223-39.60663 184.600555-37.430793 54.216734-93.73377 90.623603-158.522511 102.494713-15.794015 2.905382-40.252981 13.746169-37.353998 29.533785 2.905382 15.794015 16.350774 21.943954 32.106392 19.06417 80.083594-14.680499 149.639977-59.662725 195.876509-126.6657 46.249331-66.996575 63.630428-147.9953 48.949929-228.072495C929.229508 397.46459 920.724546 388.089293 906.965578 388.089293L906.965578 388.089293zM906.965578 388.089293"  horiz-adv-x="1024" />

    
    <glyph glyph-name="youjian01" unicode="&#59044;" d="M885.476063 614.879368c-8.966209 10.825556-20.97573 19.002796-34.691103 23.195282-6.661723 2.036379-13.72049 3.142573-21.034059 3.142573L194.248076 641.217223c-5.67321 0-11.187807-0.680499-16.489556-1.926886-14.241352-3.347235-26.881231-10.92277-36.540218-21.348214-12.106736-13.06762-19.535939-30.584576-19.535939-49.825802l0-368.232642c0-17.119913 5.888104-32.872688 15.71082-45.344744 8.727779-11.082406 20.567431-19.559475 34.183544-24.083511 7.138584-2.372024 14.755052-3.673669 22.672372-3.673669l635.502825 0c7.851828 0 15.409968 1.279133 22.497387 3.614317 13.642718 4.494361 25.511024 12.955056 34.268478 24.028253 9.875928 12.489452 15.799848 28.28623 15.799848 45.458331L902.317637 568.116321C902.317637 585.889103 895.982348 602.195487 885.476063 614.879368zM812.995285 600.285998 617.384166 404.672832l-28.962635-28.962635-68.218708-68.218708c-1.657756-1.657756-3.799536-2.608407-5.874801-2.608407-1.435699 0-2.596128 0.433882-3.450589 1.288343l-72.982198 72.982198-28.960589 28.960589L216.763882 600.285998 812.995285 600.285998zM167.534667 182.687018c-3.109828 4.978385-4.920056 10.874675-4.920056 17.196661L162.614611 568.116321c0 7.952112 2.858094 15.233959 7.576559 20.853957l208.809723-208.809723L167.534667 182.687018zM211.474412 167.715025l196.486046 183.485965 73.972758-73.971735c8.56098-8.56098 20.066011-13.277398 32.394804-13.277398 12.851703 0 25.541723 5.320169 34.817993 14.597463l69.270666 69.270666 193.696514-180.104961L211.474412 167.715025zM861.385389 199.883679c0-6.40692-1.858324-12.377912-5.045923-17.397229l-208.959126 194.295148 208.871121 208.871121c3.241834-5.048993 5.133927-11.070126 5.133927-17.537422L861.385389 199.883679z"  horiz-adv-x="1024" />

    
    <glyph glyph-name="menu" unicode="&#58908;" d="M64.012 746.614h896.174v-128.025H64.012zM64.012 447.889h896.174v-128.025H64.012zM64.012 149.165h896.174V21.14H64.012z"  horiz-adv-x="1024" />

    
    <glyph glyph-name="icon_left" unicode="&#58885;" d="M716.748 381.014c0-4.92-1.89-9.255-5.67-13.021l-264.12-264.134c-3.781-3.781-8.13-5.655-13.050-5.655s-9.255 1.875-13.035 5.655l-28.335 28.35c-3.781 3.781-5.67 8.115-5.67 13.035 0 4.905 1.89 9.255 5.67 13.035l222.75 222.75-222.75 222.736c-3.781 3.781-5.67 8.115-5.67 13.035s1.89 9.27 5.67 13.050l28.335 28.335c3.781 3.781 8.115 5.67 13.035 5.67s9.27-1.89 13.050-5.67l264.12-264.121c3.779-3.779 5.67-8.13 5.67-13.050z"  horiz-adv-x="1024" />

    
    <glyph glyph-name="icon_right" unicode="&#58886;" d="M307.252 386.986c0 4.92 1.89 9.255 5.67 13.021l264.12 264.134c3.781 3.781 8.13 5.655 13.050 5.655s9.255-1.875 13.035-5.655l28.334-28.35c3.781-3.781 5.67-8.115 5.67-13.035 0-4.904-1.89-9.255-5.67-13.035l-222.75-222.75 222.75-222.736c3.781-3.781 5.67-8.115 5.67-13.035s-1.89-9.269-5.67-13.050l-28.335-28.335c-3.781-3.781-8.115-5.67-13.035-5.67s-9.269 1.89-13.050 5.67l-264.12 264.121c-3.779 3.779-5.67 8.13-5.67 13.050z"  horiz-adv-x="1024" />

    
    <glyph glyph-name="jinggao" unicode="&#58907;" d="M877.517 652.932l2.549-1.274-2.55 1.274zM511.763 829.393c-245.983 0-445.394-199.407-445.394-445.391S265.78-61.392 511.763-61.392c245.979 0 445.39 199.41 445.39 445.394S757.748 829.393 511.764 829.393z m30.373-648.254c0-19.55-15.846-35.395-35.396-35.395-19.544 0-35.395 15.846-35.395 35.395v35.649c0 19.549 15.851 35.395 35.395 35.395 19.551 0 35.396-15.845 35.396-35.395v-35.65z m0.296 143.108c0-19.55-15.846-35.395-35.395-35.395-19.55 0-35.395 15.846-35.395 35.395V594.29c0 19.55 15.846 35.396 35.395 35.396 19.55 0 35.395-15.846 35.395-35.396v-270.043z"  horiz-adv-x="1024" />

    
    <glyph glyph-name="shenhezhong" unicode="&#58970;" d="M512 896C230.4 896 0 665.6 0 384s230.4-512 512-512 512 230.4 512 512S793.6 896 512 896zM307.2 332.8c-28.8 0-51.2 22.4-51.2 51.2 0 28.8 22.4 51.2 51.2 51.2s51.2-22.4 51.2-51.2c0-28.8-22.4-51.2-51.2-51.2z m204.8 0c-28.8 0-51.2 22.4-51.2 51.2 0 28.8 22.4 51.2 51.2 51.2 28.8 0 51.2-22.4 51.2-51.2 0-28.8-22.4-51.2-51.2-51.2z m204.8 0c-28.8 0-51.2 22.4-51.2 51.2 0 28.8 22.4 51.2 51.2 51.2s51.2-22.4 51.2-51.2c0-28.8-22.4-51.2-51.2-51.2z"  horiz-adv-x="1024" />

    
    <glyph glyph-name="guanbi" unicode="&#58997;" d="M511.99693 804.603407c-232.246505 0-420.524612-188.311877-420.524612-420.592151 0-232.30074 188.278107-420.61364 420.524612-420.61364 232.256738 0 420.529729 188.308807 420.529729 420.61364C932.527682 616.29153 744.254691 804.603407 511.99693 804.603407L511.99693 804.603407zM511.99693 5.660162c-208.92024 0-378.281509 169.386852-378.281509 378.351094 0 208.948893 169.362292 378.330628 378.281509 378.330628 208.915124 0 378.276393-169.381735 378.276393-378.330628C890.274346 175.047014 720.912054 5.660162 511.99693 5.660162L511.99693 5.660162zM658.165987 563.692568l-102.121865-102.121865 0 0.13303-44.047192-44.047192L365.898481 563.76113l-33.592073-33.591049 102.121865-102.121865-0.13303 0 44.048215-44.046169L332.242963 237.897458l33.586956-33.592073 102.121865 102.126982 0-0.138146 44.047192 44.052309 146.104589-146.103566 33.592073 33.590026-102.126982 102.121865 0.138146 0-44.048215 44.047192 146.099473 146.099473L658.165987 563.692568z"  horiz-adv-x="1024" />

    
    <glyph glyph-name="line-chart" unicode="&#59010;" d="M980.363636 334.196364l-201.495272 0.302545a20.363636 20.363636 0 0 0-24.948364 14.382546l-30.370909 96.628363L628.363636-1.28s-1.931636-23.575273-14.661818-23.575273-34.257455-0.349091-34.257454-0.349091a19.712 19.712 0 0 0-24.133819 13.963637l-118.085818 582.702545-89.506909-421.003636c-2.885818-10.542545-15.220364-19.362909-25.972363-16.523637l-31.65091-0.442181a20.852364 20.852364 0 0 0-25.506909 14.452363l-59.717818 186.274909H43.636364A20.363636 20.363636 0 0 0 23.272727 354.583273v40.727272c0 11.240727 9.122909 20.363636 20.363637 20.363637l200.448 0.651636c12.171636 0.372364 22.528-1.000727 25.506909-11.915636l31.045818-96.884364L388.026182 764.509091s4.328727 13.870545 18.338909 13.870545c13.986909 0 43.426909 0.581818 43.426909 0.581819a19.712 19.712 0 0 0 24.157091-13.963637l117.015273-578.210909 86.528 415.325091c2.792727 10.519273 11.077818 19.316364 21.597091 16.477091l34.769454 0.442182a20.363636 20.363636 0 0 0 24.948364-14.429091l59.415272-188.928h162.141091c11.240727 0 20.363636-9.122909 20.363637-20.363637v-40.727272a20.363636 20.363636 0 0 0-20.363637-20.363637z"  horiz-adv-x="1024" />

    
    <glyph glyph-name="dizhi" unicode="&#58891;" d="M512 505.461c-41.853 0-75.931 34.077-75.931 75.931 0 41.853 34.077 75.931 75.931 75.931s75.931-34.077 75.931-75.931c0-41.853-34.077-75.931-75.931-75.931zM512 626.922c-25.169 0-45.531-20.502-45.531-45.531 0-25.169 20.363-45.531 45.531-45.531s45.531 20.363 45.531 45.531c0 25.027-20.363 45.531-45.531 45.531zM511.577 132.311l-11.737 14.422c-0.565 0.565-50.48 62.215-99.686 141.681-66.881 108.029-100.816 196.26-100.816 262.293 0 125.703 95.302 228.074 212.519 228.074 56.983 0 110.432-23.898 150.589-67.164 39.732-42.986 61.791-100.109 62.075-160.769 0.285-66.033-33.653-154.265-100.959-262.293-49.49-79.466-99.686-141.115-100.252-141.681l-11.737-14.563zM512 748.383c-100.393 0-182.121-88.657-182.121-197.676 0-124.006 139.984-315.317 181.838-369.756 42.137 54.579 182.971 245.892 182.544 369.756-0.285 53.165-19.372 102.939-54.015 140.268-34.358 37.047-79.889 57.407-128.25 57.407zM1008.308-10.784h-992.614l183.677 334.124h145.639v-30.401h-127.681l-150.307-273.323h889.961l-150.307 273.323h-127.681v30.401h145.639z"  horiz-adv-x="1024" />

    
    <glyph glyph-name="chenggong" unicode="&#59083;" d="M511.45856 831.99872c-249.4848-0.4224-448.27136-199.95136-447.456-449.11616 0.81664-248.71808 198.74304-446.41536 447.39584-446.88128 249.20704-0.4736 448.57728 198.6176 448.6016 447.97056 0.02304 249.34272-199.31392 448.44928-448.54144 448.02688z m-37.39648-694.67008C402.01728 205.5168 329.07648 274.57152 253.76512 345.856c22.06464 14.90176 38.70464 26.144 57.08544 38.55872 43.08736-34.23872 84.84736-67.42656 126.79552-100.76928 86.94016 114.03008 203.74528 192.85376 315.6608 279.70944 5.51808-7.3664 10.432-13.93152 16.13952-21.54112-132.65792-112.57216-220.07552-257.05344-295.38432-404.48512z"  horiz-adv-x="1024" />

    
    <glyph glyph-name="faq" unicode="&#58903;" d="M512 832.697c-247.389 0-448.698-201.255-448.698-448.722 0-247.416 201.255-448.671 448.698-448.671s448.698 201.255 448.698 448.671-201.309 448.722-448.698 448.722zM512-21.903c-223.891 0-405.98 182.116-405.98 405.929 0 223.891 182.113 406.004 405.98 406.004s405.98-182.164 405.98-406.004c0-223.816-182.116-405.929-405.98-405.929zM542.842 169.717c0-16.874-13.688-30.56-30.56-30.56-16.874 0-30.56 13.688-30.56 30.56 0 16.874 13.688 30.56 30.56 30.56 16.872 0.002 30.56-13.686 30.56-30.56zM616.017 552.682c25.744-23.474 38.615-51.894 38.615-85.157 0-19.244-4.536-37.035-13.586-53.27-9.047-16.235-26.763-35.99-53.066-59.26-17.664-15.727-29.235-27.222-34.638-34.665-5.404-7.443-9.456-15.931-12.108-25.564-2.625-9.66-4.13-25.258-4.536-46.95l-52.174-0.024c-0.204 7.239-0.306 12.616-0.306 16.235 0 21.284 3.034 39.609 9.047 55.081 4.436 11.673 11.573 23.372 21.41 35.251 7.188 8.615 20.239 21.284 39.024 37.825 18.785 16.541 31.046 29.745 36.651 39.558 5.608 9.813 8.437 20.545 8.437 32.191 0 21.080-8.233 39.609-24.699 55.514-16.466 15.931-36.702 23.933-60.611 23.933-23.119 0-42.412-7.239-57.911-21.69-15.496-14.451-25.642-36.984-30.458-67.697l-55.769 6.626c5.046 41.138 19.957 72.617 44.758 94.511s57.629 32.803 98.436 32.803c43.282-0.002 77.743-11.777 103.484-35.251z"  horiz-adv-x="1024" />

    
    <glyph glyph-name="icon1" unicode="&#58880;" d="M511.867 496.982l292.16-292.155c12.27-12.28 32.186-12.28 44.457 0 12.281 12.27 12.281 32.186 0 44.457l-314.388 314.388c-12.27 12.28-32.186 12.28-44.457 0l-314.387-314.388c-6.14-6.136-9.211-14.183-9.211-22.228s3.071-16.092 9.211-22.228c12.27-12.28 32.186-12.28 44.457 0l292.159 292.155z"  horiz-adv-x="1024" />

    
    <glyph glyph-name="Shape" unicode="&#58881;" d="M1023.943305 857.063338v0.77275a14.952717 14.952717 0 0 1-0.096594 2.125064v0.482968a24.264357 24.264357 0 0 1-0.386375 2.608032v0.386376l-0.579563 2.608032c-0.289781 0.965938-0.482969 1.835282-0.77275 2.801219a37.980673 37.980673 0 0 1-2.318251 5.409252v0.096593a47.746304 47.746304 0 0 1-2.897813 4.733095l-0.289782 0.482969c-0.579563 0.676156-1.062532 1.352313-1.642094 2.02847l-0.096593 0.096593a14.12201 14.12201 0 0 1-1.545501 1.835282l-0.482969 0.482969c-0.579563 0.579563-1.255719 1.255719-1.835282 1.738688l-0.096593 0.193188c-0.676156 0.482969-1.255719 0.965938-1.835282 1.448906l-0.482969 0.386375a35.131157 35.131157 0 0 1-4.443314 2.897814l-0.193187 0.193187a47.330951 47.330951 0 0 1-5.022877 2.318251h-0.096593a33.807822 33.807822 0 0 1-5.312658 1.642094l-0.289782 0.193188a52.073705 52.073705 0 0 1-5.409251 0.77275h-0.579563a12.306047 12.306047 0 0 1-2.704625 0.193187H748.264665a39.410261 39.410261 0 1 1 0-78.820522h141.220102L630.130476 557.815817 421.681105 766.265188a39.468217 39.468217 0 0 1-55.73461 0L11.543927 411.86262a39.410261 39.410261 0 1 1 55.73461-55.734609l326.58356 326.58356 208.449371-208.449371a39.410261 39.410261 0 0 1 55.638015 0l287.269893 287.173299v-141.123508a39.361964 39.361964 0 1 1 78.723929 0V857.063338zM118.183457 187.088901a39.410261 39.410261 0 0 1-39.410261-39.410261v-236.268379a39.361964 39.361964 0 1 1 78.723929 0V147.67864a39.410261 39.410261 0 0 1-39.313668 39.410261zM393.862097 383.947018a39.246052 39.246052 0 0 1-39.410261-39.313667v-433.22309a39.361964 39.361964 0 1 1 78.723928 0V344.633351A39.246052 39.246052 0 0 1 393.862097 383.947018z m275.67864-157.447856a39.410261 39.410261 0 0 1-39.410261-39.410261v-275.67864a39.361964 39.361964 0 1 1 78.723928 0V187.088901a39.371624 39.371624 0 0 1-39.313667 39.410261z m275.678639 196.858117A39.323327 39.323327 0 0 1 905.809115 383.947018v-472.536757a39.361964 39.361964 0 1 1 78.723929 0V383.947018a39.246052 39.246052 0 0 1-39.313668 39.410261z"  horiz-adv-x="1024" />

    
    <glyph glyph-name="Shape1" unicode="&#58882;" d="M960.087596 226.414111c-19.31412 8.691354-42.491065 0-51.18242-19.31412C851.928521 79.626795 737.97521-12.115277 601.81066-41.086458 367.144096-90.337465 137.306062 59.346969 87.089349 294.013533l43.456771-35.731123c16.417002-13.519884 40.559653-10.622766 54.079538 5.794236 13.519884 16.417002 11.588472 40.559653-4.828531 55.045244l-115.884723 94.63919C57.152462 419.555316 48.461108 422.452434 38.804048 422.452434c-21.245533 0-38.628241-17.382708-38.628241-38.628241 0-282.951865 228.872328-511.824193 511.824193-511.824193 201.832559 0 385.316704 118.781841 467.401716 303.231692 8.691354 19.31412 0 42.491065-19.31412 51.182419zM709.969735 615.593639c-15.451296 15.451296-39.593947 15.451296-55.045243 0L541.936887 501.640328c-2.897118-2.897118-5.794236-6.759942-7.725648-10.622766h-43.456772c-1.931412 3.862824-3.862824 7.725648-7.725648 10.622766L368.109802 615.593639c-15.451296 15.451296-39.593947 15.451296-55.045243 0s-15.451296-39.593947 0-55.045243l69.530834-69.530834H347.829976c-21.245533 0-38.628241-17.382708-38.628241-38.628241s17.382708-38.628241 38.628241-38.628241h125.541783v-95.604896H348.795682c-21.245533 0-38.628241-17.382708-38.628241-38.628241s17.382708-38.628241 38.628241-38.628241H473.371759v-114.919017c0-21.245533 17.382708-38.628241 38.628241-38.628241s38.628241 17.382708 38.628241 38.628241V239.933996h124.576077v-0.965707c22.211239 0 39.593947 17.382708 39.593947 39.593947s-17.382708 38.628241-39.593947 38.628241H550.628241V412.795374h124.576077c21.245533 0 38.628241 17.382708 38.628241 38.628241s-17.382708 38.628241-38.628241 38.628241h-34.765417l69.530834 69.530834c15.451296 16.417002 15.451296 40.559653 0 56.010949zM723.489619 850.260203C465.646111 967.110632 162.414419 852.191615 45.56399 595.313813c-8.691354-19.31412 0-42.491065 19.31412-51.18242 19.31412-8.691354 42.491065 0 51.18242 19.314121 57.942361 126.507489 173.827084 218.249562 309.991634 246.255036C660.718728 857.020145 889.591056 704.438593 936.910651 469.772029L898.28241 499.708916c-17.382708 13.519884-41.525359 9.65706-55.045243-6.759942s-9.65706-41.525359 6.759942-55.045243l109.124781-84.016425c6.759942-4.82853 15.451296-7.725648 23.176944-7.725648 5.794236 0 11.588472 0.965706 17.382709 3.862824 13.519884 6.759942 21.245533 20.279827 21.245532 34.765417 2.897118 199.901147-114.919017 382.419586-297.437456 465.470304z"  horiz-adv-x="1024" />

    
    <glyph glyph-name="Shape2" unicode="&#58883;" d="M677.808156 715.225407a34.92851 34.92851 0 0 1-34.95748 34.860912H163.585556a34.909196 34.909196 0 1 1 0-69.818392h479.26512a34.947823 34.947823 0 0 1 34.95748 34.95748z m-514.2226-87.103997a34.909196 34.909196 0 0 1 0-69.818393h302.932638a34.909196 34.909196 0 1 1 0 69.818393H163.585556z m641.498729-126.310453L694.417788 391.241027 583.847858 501.810957a34.889883 34.889883 0 0 1-49.346056-49.346056l89.42162-89.421621h-47.318136a34.860912 34.860912 0 1 1 0-69.721824h82.951589v-28.101179h-82.951589a34.909196 34.909196 0 1 1 0-69.818393h82.951589v-60.644468a34.909196 34.909196 0 1 1 69.818393 0v60.644468h82.951589a34.909196 34.909196 0 0 1 0 69.818393h-82.951589v28.101179h82.951589a34.860912 34.860912 0 1 1 0 69.721824h-47.318136l89.421621 89.421621a34.889883 34.889883 0 0 1-49.346057 49.346056z m218.242832 299.1665A95.157737 95.157737 0 0 1 928.208007 896L95.11911 895.903432A95.157737 95.157737 0 0 1 0 800.88089v-893.636797A34.909196 34.909196 0 0 1 34.860912-127.61682h4.828382a35.063704 35.063704 0 0 1 23.755635 9.36706l92.415217 86.234889 92.415217-86.234889a34.880226 34.880226 0 0 1 23.755635-9.36706h10.043033a35.121645 35.121645 0 0 1 23.852203 9.36706l92.415217 86.331456 92.318649-86.331456a35.295467 35.295467 0 0 1 23.852203-9.36706h10.043033a35.295467 35.295467 0 0 1 23.852204 9.36706l92.415216 86.234889 92.318649-86.234889a34.918853 34.918853 0 1 1 47.607839 51.084273L664.578392 41.279956a34.764345 34.764345 0 0 1-47.607839 0L519.53382-49.686747l-97.436733 90.966703a34.764345 34.764345 0 0 1-47.607839 0l-97.436733-90.966703-97.436733 90.966703a34.764345 34.764345 0 0 1-47.607839 0l-62.18955-58.13371V800.88089a25.242777 25.242777 0 0 0 25.300717 25.20415l833.088897 0.096567a25.242777 25.242777 0 0 0 25.300717-25.20415v-811.650883l0.386271-72.715422a34.764345 34.764345 0 0 1 34.860912-34.667777h0.193135a34.764345 34.764345 0 0 1 34.764345 35.054048l-0.38627 883.980034z"  horiz-adv-x="1024" />

    
    <glyph glyph-name="Shape3" unicode="&#58884;" d="M802.260982 822.501682a33.973832 33.973832 0 0 1 0-67.947663 110.170916 110.170916 0 0 0 78.953271-33.112524A113.587439 113.587439 0 0 0 913.943973 641.435514v-588.369346a113.262056 113.262056 0 0 0-32.72972-80.005981 110.170916 110.170916 0 0 0-78.953271-33.112523H221.739113a110.170916 110.170916 0 0 0-78.953271 33.112523A113.262056 113.262056 0 0 0 110.056123 53.066168V641.435514a113.587439 113.587439 0 0 0 32.729719 80.005981 110.170916 110.170916 0 0 0 78.953271 33.112524 33.973832 33.973832 0 0 1 0 67.947663A180.070879 180.070879 0 0 1 43.065468 641.435514v-588.369346A180.070879 180.070879 0 0 1 221.739113-128h580.521869A180.070879 180.070879 0 0 1 980.934627 53.066168V641.435514A180.070879 180.070879 0 0 1 802.260982 822.501682z m-435.439252-67.947663a33.78243 33.78243 0 0 1 33.591028 33.973831 39.534056 39.534056 0 0 0 11.388411 27.944673 38.653607 38.653607 0 0 0 27.65757 11.579813h145.082617a38.653607 38.653607 0 0 0 27.65757-11.579813 40.117832 40.117832 0 0 0 11.388412-27.944673 33.543178 33.543178 0 1 1 67.086355 0A106.917084 106.917084 0 0 1 584.541356 896H439.458739a106.917084 106.917084 0 0 1-106.132336-107.47215 34.040822 34.040822 0 0 1 9.857196-24.020934 33.409196 33.409196 0 0 1 23.638131-9.952897z m-72.541308-661.963365a33.82071 33.82071 0 0 1 33.495327 33.973832 184.243439 184.243439 0 1 0 368.448598 0 33.495327 33.495327 0 1 1 66.990654 0.095701 253.741458 253.741458 0 0 1-141.063177 227.481121 182.147589 182.147589 0 0 1 57.324859 197.526729 177.927178 177.927178 0 0 1-339.259813 0 182.31985 182.31985 0 0 1 57.420561-197.71813 254.152972 254.152972 0 0 1-136.852336-227.385421 33.82071 33.82071 0 0 1 33.495327-33.973832z m106.132336 401.752524a113.329047 113.329047 0 0 0 32.634019 80.005981A110.333607 110.333607 0 0 0 512.000048 607.461682a113.128075 113.128075 0 1 0-111.58729-113.118504z"  horiz-adv-x="1024" />

    
    <glyph glyph-name="icofuwuguanli" unicode="&#58887;" d="M338.487469 896H144.115289A145.139191 145.139191 0 0 1 0.000008 752.481999v-194.37218a142.809797 142.809797 0 0 1 144.115281-140.787576h334.562475V752.481999A141.785887 141.785887 0 0 1 338.487469 896z m69.967159-408.454621H144.115289a72.160032 72.160032 0 0 0-72.697584 70.56444V752.481999a73.380191 73.380191 0 0 0 72.697584 72.100304h194.37218a71.084927 71.084927 0 0 0 69.967159-72.100304v-264.93662zM883.634027 896H689.261847A144.985605 144.985605 0 0 1 545.317217 752.481999v-335.159756h338.31681A139.593014 139.593014 0 0 1 1023.994973 558.109819V752.481999A141.930941 141.930941 0 0 1 883.634027 896z m68.943249-337.890181a68.960314 68.960314 0 0 0-68.943249-70.56444H615.540353V752.481999a74.233449 74.233449 0 0 0 73.721494 72.100304h194.37218a70.231669 70.231669 0 0 0 68.943249-72.100304v-194.37218zM0.000008 207.335441v-194.37218A142.946318 142.946318 0 0 1 144.115289-127.994966h194.37218a139.593014 139.593014 0 0 1 140.190295 140.958227V350.597465H144.115289A144.917344 144.917344 0 0 1 0.000008 207.335441z m408.45462-194.37218a68.951782 68.951782 0 0 0-69.967159-69.540529H144.115289a71.306774 71.306774 0 0 0-72.697584 69.540529V207.335441a74.310242 74.310242 0 0 0 72.697584 73.124214h264.339339v-267.496394z m475.179399 337.634204H545.317217v-337.634204A142.801264 142.801264 0 0 1 689.261847-127.994966h194.37218A139.738068 139.738068 0 0 1 1023.994973 12.963261V207.335441a141.709094 141.709094 0 0 1-140.360946 143.262024z m68.943249-337.634204a68.098524 68.098524 0 0 0-68.943249-69.540529H689.261847c-39.24987 0-73.721494 30.375986-73.721494 69.540529V280.459655h268.093674a71.136122 71.136122 0 0 0 68.943249-73.124214v-194.37218z m0 0"  horiz-adv-x="1024" />

    
    <glyph glyph-name="icoyanzhengshenfen" unicode="&#58888;" d="M345.067936 439.5131c-12.382104 11.55663-31.367997 11.55663-42.924628 0L287.284784 425.480048c-11.55663-11.55663-11.55663-30.542523 0-42.099153l157.665457-155.189037 0.825474-0.825473 14.858525-14.033052c12.382104-11.55663 31.367997-11.55663 42.924627 0l274.057235 269.104394c11.55663 11.55663 12.382104 30.542523 0.825473 42.099153l-0.825473 0.825474-14.033051 14.033051c-12.382104 11.55663-31.367997 11.55663-42.924628 0L482.096553 304.960903 345.067936 439.5131zM974.078818 652.485288c-40.448206 2.476421-80.070939 10.731157-118.042724 23.113261-11.55663 3.301894-23.113261 7.429262-34.669892 12.382104-33.018944 11.55663-65.212414 26.415155-95.754937 43.750101l-0.825474 0.825473c-9.08021 4.952842-18.160419 10.731157-27.240628 15.683999C685.163059 755.669488 672.780955 763.924224 660.398851 772.17896c-0.825474 0-0.825474 0.825474-1.650948 0.825474-9.08021 5.778315-17.334946 12.382104-26.415155 18.160419-5.778315 4.127368-11.55663 8.254736-17.334945 13.207577-4.127368 3.301894-8.254736 6.603789-13.207578 9.905684-31.367997 24.764208-61.085046 52.83031-89.976622 81.721886-28.891576-28.891576-58.608626-56.957678-90.802096-81.721886-4.127368-3.301894-8.254736-6.603789-13.207578-9.905684-5.778315-4.127368-11.55663-9.08021-17.334945-13.207577-9.08021-6.603789-17.334946-12.382104-26.415156-18.160419l-0.825473-0.825474c-12.382104-8.254736-24.764208-16.509472-37.146312-23.938734-9.08021-5.778315-18.160419-10.731157-27.240629-15.683999-0.825474 0-0.825474 0-1.650947-0.825473-30.542523-18.160419-61.91052-32.19347-94.929464-43.750101l-34.669891-12.382104C129.619326 663.216445 89.996593 654.961709 49.548387 652.485288c1.650947-19.811366 2.476421-45.401048 4.127368-73.46715h0.825474c5.778315-98.231358 24.764208-194.811769 56.132204-288.090286 1.650947-4.127368 2.476421-7.429262 4.127368-11.556631 0.825474-1.650947 1.650947-3.301894 1.650948-4.952841 71.816203-194.811769 195.637243-335.967755 345.873438-387.972592v-0.825474c30.542523-18.160419 68.514309-18.160419 99.056832 0v0.825474c149.410721 52.004837 274.057235 193.160822 345.873438 387.972592 0.825474 1.650947 1.650947 3.301894 1.650947 4.952841 1.650947 3.301894 2.476421 7.429262 4.127368 11.556631 31.367997 93.278517 50.35389 189.858928 56.957678 288.090286h0.825474c0.825474 28.066102 1.650947 53.655784 3.301894 73.46715z m-460.614268-719.812978c-0.825474 0-1.650947 0.825474-1.650947 0.825473-0.825474 0-1.650947-0.825474-1.650947-0.825473-206.3684 64.386941-361.557437 319.458283-375.590488 647.171301 123.82104 28.066102 253.420395 97.405885 373.114067 201.415559 1.650947-0.825474 2.476421-2.476421 4.127368-3.301895 1.650947 0.825474 2.476421 1.650947 4.127368 3.301895 119.693672-104.009674 249.293027-173.349456 373.114067-201.415559-14.033051-327.713019-169.222088-582.784361-375.590488-647.171301z"  horiz-adv-x="1024" />

    
    <glyph glyph-name="icojierutongdao" unicode="&#58889;" d="M980.224 592.896a43.665067 43.665067 0 0 1-43.690667-43.690667v-539.904a49.911467 49.911467 0 0 0-49.92-49.834666H137.301333a49.911467 49.911467 0 0 0-49.92 49.834666V758.698667a49.988267 49.988267 0 0 0 49.92 49.92h539.818667a43.690667 43.690667 0 0 1 0 87.381333H137.301333A137.480533 137.480533 0 0 1 0 758.698667v-749.397334A137.480533 137.480533 0 0 1 137.301333-128h749.312a137.4976 137.4976 0 0 1 137.386667 137.301333V549.205333a43.741867 43.741867 0 0 1-43.776 43.690667z m0 0l-311.125333-2.816-357.205334-357.290667V609.877333a43.733333 43.733333 0 0 1-87.466666 0v-419.669333a106.538667 106.538667 0 0 1 106.410666-106.410667h419.669334a43.733333 43.733333 0 0 1 0 87.466667H373.930667L730.88 528.213333a43.716267 43.716267 0 0 1-61.781333 61.866667z m0 0"  horiz-adv-x="1024" />

    
    <glyph glyph-name="icozhuceruzhu" unicode="&#58890;" d="M826.843311 541.77871L664.369281 700.668754c-7.594637 7.509304-7.594637 7.509304-15.445273-0.341332Q463.836733 515.752145 278.664125 331.006202a44.202494 44.202494 0 0 1-11.861287-20.394587q-28.543888-105.727586-57.514442-211.540504c-1.70666-6.229309-3.41332-12.373285-5.119979-18.858593 0.341332-7.167972 5.375979-3.327987 8.021301-2.645323q114.687551 31.743876 229.375102 63.658417a32.571606 32.571606 0 0 1 14.335944 8.618633L826.928644 520.360127c10.837291 10.751958 10.837291 10.751958-0.085333 21.418583z m-90.964977-0.085333q-69.973059-69.887726-139.860786-140.031452L390.450354 195.838732a35.379061 35.379061 0 0 0-16.554602-9.813295c-25.002569-6.741307-49.834471-13.823946-74.751707-20.735919-3.327987-0.938663-7.765303-3.498653-7.509304 2.986655 6.229309 22.783911 12.970616 44.629159 17.919929 66.986404a74.709041 74.709041 0 0 0 22.271913 37.631853q153.599398 152.831401 306.516133 306.345467c10.23996 10.23996 20.821252 19.967922 31.061212 30.207881a6.178109 6.178109 0 0 0 10.23996 0c19.797256-17.834597 37.973185-37.54652 57.343775-55.893114 5.375979-5.11998 2.815989-8.021302-1.109329-11.861287z m287.060209 238.932398A126.130706 126.130706 0 0 1 896.389705 895.995989a122.282188 122.282188 0 0 1-88.575653-36.949188c-30.549214-30.207882-60.757095-60.757095-91.306309-91.05031a7.150905 7.150905 0 0 1-0.085333-12.543951c19.62659-18.346595 38.911848-36.949189 58.197106-55.637116q56.06378-54.271787 111.786228-108.71424c4.437316-4.351983 6.911973-4.693315 11.434622-0.170666 29.86655 30.293215 60.159764 60.074431 90.026314 90.282313A128.195765 128.195765 0 0 1 1024.047872 770.471148c-0.255999 2.218658-0.767997 6.143976-1.109329 10.154627z m-83.626339-58.367772c-14.847942-15.103941-30.037216-30.037216-44.885158-45.141156-2.303991-2.218658-3.498653-1.962659-5.717311 0.085333q-27.775891 27.263893-55.807781 54.35712c-9.642629 9.215964-19.285258 18.517261-29.01322 27.733225a3.541319 3.541319 0 0 0 0 6.229309c15.274607 15.103941 30.378548 30.378548 45.653155 45.482488a61.294693 61.294693 0 0 0 44.11716 18.431928 62.907487 62.907487 0 0 0 63.14642-57.599774c0.255999-1.962659 0.426665-4.010651 0.597331-5.034647a63.92295 63.92295 0 0 0-18.090596-44.543826z m81.919679-193.620575a15.086874 15.086874 0 0 1-5.97331-4.863981q-32.383873-32.42654-64.853079-64.767746c0.085333-116.308878 0.255999-232.532423-0.085333-348.8413a160.750304 160.750304 0 0 0-55.722449-124.842178 155.306058 155.306058 0 0 0-105.471587-40.789174q-278.526909-0.383998-557.139151 0a153.599398 153.599398 0 0 0-101.887601 38.655849 160.426038 160.426038 0 0 0-57.855773 127.316835q0.127999 272.638932 0 545.277864A161.347635 161.347635 0 0 0 128.051381 781.649771a153.880997 153.880997 0 0 0 97.620951 39.935843c48.042479 2.303991 96.084957 0.767997 144.212769 0.938663q108.159576 0.383998 216.319153 0.085333 32.42654 32.255874 64.59708 64.59708c1.877326 1.877326 5.887977 3.498653 4.437316 6.485308a7.927436 7.927436 0 0 1-7.423971 1.023996C547.377739 894.801327 447.026132 894.971993 346.589192 894.715994c-55.978447-0.170666-111.956895 1.535994-167.935342-1.109329A178.747033 178.747033 0 0 1 65.075628 847.014848 187.886197 187.886197 0 0 1 0.051883 700.412755q0.255999-317.310757 0.085333-634.79218a186.631802 186.631802 0 0 1 67.327736-148.223419 178.141169 178.141169 0 0 1 118.612869-44.970491q324.35073-0.639997 648.701459-0.085333a180.948625 180.948625 0 0 1 122.794186 47.530481 187.2718 187.2718 0 0 1 64.853079 145.40743c0.426665 151.807405 0.170666 303.614811 0.085333 455.507549a10.461826 10.461826 0 0 1-1.279995 7.850636z m0 0"  horiz-adv-x="1024" />

    
    <glyph glyph-name="icon-jiandan" unicode="&#58892;" d="M453.512533 316.791467l-58.5216 58.6752-175.530666-175.991467 175.530666-176.008533 58.5216 58.658133-117.026133 117.3504z m117.026134-234.666667l58.5216-58.658133 175.530666 176.008533-175.530666 175.991467-58.5216-58.6752 117.026133-117.316267z m299.3664 579.874133l-130.645334 130.935467A203.229867 203.229867 0 0 1 614.4 844.8h-438.852267a73.386667 73.386667 0 0 1-73.147733-73.386667v-791.893333a73.386667 73.386667 0 0 1 73.147733-73.386667h672.904534a73.386667 73.386667 0 0 1 73.147733 73.386667v557.277867a204.458667 204.458667 0 0 1-51.729067 125.201066z m-41.3696-41.472a79.5136 79.5136 0 0 0 8.533333-10.3936h-149.504v149.845334a79.1552 79.1552 0 0 0 10.359467-8.533334l130.628266-130.935466z m34.577066-641.006933a14.865067 14.865067 0 0 0-14.6432-14.677333h-672.904533a14.848 14.848 0 0 0-14.626133 14.677333v791.893333a14.848 14.848 0 0 0 14.626133 14.677334H614.4a79.394133 79.394133 0 0 0 14.626133-1.570134v-233.045333h232.533334a81.152 81.152 0 0 0 1.553066-14.677333z"  horiz-adv-x="1024" />

    
    <glyph glyph-name="icon-funemg" unicode="&#58893;" d="M650.1376 667.938133a30.856533 30.856533 0 0 1-30.839467 30.839467h-423.560533a30.8224 30.8224 0 1 1 0-61.661867h423.560533a30.839467 30.839467 0 0 1 30.839467 30.8224z m-454.382933-76.9536a30.839467 30.839467 0 0 1 0-61.678933h267.707733a30.839467 30.839467 0 0 1 0 61.678933z m566.852266-111.547733l-97.757866-97.7408-97.757867 97.7408a30.839467 30.839467 0 0 1-43.605333-43.605333l79.035733-79.018667h-41.8304a30.839467 30.839467 0 0 1 0-61.678933h73.386667v-24.7808h-73.386667a30.839467 30.839467 0 0 1 0-61.678934h73.386667v-53.6576a30.839467 30.839467 0 0 1 61.678933 0v53.6576h73.386667a30.839467 30.839467 0 0 1 0 61.678934h-73.386667v24.7808h73.386667a30.839467 30.839467 0 0 1 0 61.678933h-41.966934l79.035734 79.018667a30.839467 30.839467 0 0 1-43.605334 43.605333z m192.853334 264.3456a84.087467 84.087467 0 0 1-84.0192 83.950933h-736.221867a84.0704 84.0704 0 0 1-84.0192-84.036266v-789.6576a30.8224 30.8224 0 0 1 30.839467-30.839467h4.1984a30.976 30.976 0 0 1 21.026133 8.277333l81.664 76.2368 81.629867-76.2368a30.976 30.976 0 0 1 21.0432-8.277333h8.874666a30.976 30.976 0 0 1 21.0432 8.277333l81.646934 76.253867 81.646933-76.253867a31.044267 31.044267 0 0 1 21.0432-8.277333h8.891733a30.976 30.976 0 0 1 21.026134 8.277333l81.664 76.2368 81.6128-76.2368a30.839467 30.839467 0 0 1 42.0864 45.1072l-102.673067 95.880534a30.856533 30.856533 0 0 1-42.069333 0l-86.101334-80.384-86.101333 80.384a30.8736 30.8736 0 0 1-42.0864 0l-86.084267-80.384-86.101333 80.384a30.8736 30.8736 0 0 1-42.0864 0l-54.954667-51.3536v722.5856a22.3232 22.3232 0 0 0 22.340267 22.186666h736.221867a22.340267 22.340267 0 0 0 22.357333-22.289066v-717.038934l0.324267-64.273066a30.8224 30.8224 0 0 1 30.839466-30.72h0.0512a30.8224 30.8224 0 0 1 30.72 31.044266l-0.273066 781.1584z"  horiz-adv-x="1024" />

    
    <glyph glyph-name="icon-zhineng" unicode="&#58894;" d="M862.088533 357.358933c-11.485867-41.915733-23.3472-85.248-29.696-123.665066a411.306667 411.306667 0 0 1 1.604267-147.080534 29.474133 29.474133 0 0 0-17.7152-34.2528l-361.079467-144.145066a29.2864 29.2864 0 0 0-27.306666 3.003733 29.559467 29.559467 0 0 0-12.834134 24.405333l0.238934 164.573867h-77.550934a81.390933 81.390933 0 0 0-81.92 79.8208l0.170667 92.962133-7.6288 0.6144a193.757867 193.757867 0 0 0-62.6176 10.24 81.271467 81.271467 0 0 0-49.220267 74.564267c0 19.6096 10.018133 53.9136 87.432534 145.681067 0 1.877333 0 3.925333-0.085334 5.905066a128.1024 128.1024 0 0 0 0.597334 18.619734c3.072 166.4512 161.877333 313.838933 341.8112 316.194133h4.181333c175.9232 0 325.000533-143.940267 325.5296-314.299733 0.187733-48.759467-16.366933-109.175467-33.911467-173.141334z m-291.618133 428.526934h-3.413333c-147.831467-1.911467-283.153067-126.293333-283.921067-261.034667a29.098667 29.098667 0 0 0-0.631467-5.8368v-8.533333c0.2048-17.954133 0.290133-27.8528-7.7824-37.546667l-2.730666-3.208533c-73.591467-86.6304-76.8-110.933333-76.8-111.906134 0-3.328 0-13.2096 15.9744-20.8896a316.347733 316.347733 0 0 1 41.745066-4.7104l34.577067-2.491733a29.422933 29.422933 0 0 0 27.306667-29.44l-0.238934-120.098133a22.510933 22.510933 0 0 1 22.545067-21.179734h107.52a29.371733 29.371733 0 0 0 29.3376-29.4912l-0.238933-150.5792 298.666666 119.210667a492.424533 492.424533 0 0 0 2.0992 145.066667 1328.418133 1328.418133 0 0 0 31.0272 129.706666c15.701333 57.326933 31.931733 116.616533 31.7952 157.303467-0.426667 138.615467-122.624 255.658667-266.837333 255.658667z m-5.12-231.304534c-66.7648 0-142.4384 0-142.4384 67.874134 0.017067 60.398933 63.0272 111.4112 137.557333 111.4112 81.2544 0 147.3536-49.988267 147.3536-111.428267 0-67.771733-75.6736-67.771733-142.455466-67.771733z m-4.881067 120.405334c-43.6736 0-78.865067-28.740267-78.865066-52.5312 2.781867-3.720533 18.961067-8.96 83.7632-8.96s81.015467 5.239467 84.906666 8.362666c-1.109333 25.3952-39.048533 53.128533-89.8048 53.128534z"  horiz-adv-x="1024" />

    
    <glyph glyph-name="icon-weilai" unicode="&#58895;" d="M390.126933 749.738667v-243.7632h-243.831466v243.7632h243.831466m30.464 61.013333h-304.776533a28.791467 28.791467 0 0 1-30.4128-30.549333v-304.6912a28.791467 28.791467 0 0 1 30.481067-30.481067h304.708266a28.791467 28.791467 0 0 1 30.481067 30.481067v304.6912a28.791467 28.791467 0 0 1-30.481067 30.549333z m-30.464-548.539733v-243.7632h-243.831466v243.7632h243.831466m30.464 60.945066h-304.776533a28.791467 28.791467 0 0 1-30.4128-30.464v-304.708266a28.791467 28.791467 0 0 1 30.481067-30.464h304.708266a28.791467 28.791467 0 0 1 30.481067 30.464v304.708266a28.791467 28.791467 0 0 1-30.481067 30.464z m457.181867-60.945066v-243.7632h-243.831467v243.7632h243.831467m30.481067 60.945066h-304.7936a28.7744 28.7744 0 0 1-30.464-30.464v-304.708266a28.7744 28.7744 0 0 1 30.464-30.464h304.7936a28.791467 28.791467 0 0 1 30.481066 30.464v304.708266a28.791467 28.791467 0 0 1-30.481066 30.464z m-152.388267 426.581334a121.890133 121.890133 0 1 0-121.924267-121.873067 122.248533 122.248533 0 0 0 121.924267 121.873067m0 60.928a179.5584 179.5584 0 0 1-182.869333-182.801067 182.869333 182.869333 0 0 1 365.738666 0 179.5584 179.5584 0 0 1-182.869333 182.8864z"  horiz-adv-x="1024" />

    
    <glyph glyph-name="icojiandanbianjie" unicode="&#58896;" d="M942.682353 813.176471H81.317647c-45.176471 0-81.317647-36.141176-81.317647-79.811765v-536.094118c0-45.176471 36.141176-79.811765 81.317647-79.811764h403.576471v-106.917648H296.658824c-15.058824 1.505882-28.611765-10.541176-28.611765-25.6-1.505882-15.058824 10.541176-28.611765 25.6-28.611764H728.847059c15.058824-1.505882 28.611765 10.541176 28.611765 25.6 1.505882 15.058824-10.541176 28.611765-25.6 28.611764H539.105882v106.917648h403.576471c45.176471 0 81.317647 36.141176 81.317647 79.811764V733.364706c0 43.670588-36.141176 79.811765-81.317647 79.811765z m27.105882-615.905883c0-15.058824-12.047059-27.105882-27.105882-27.105882H81.317647c-15.058824 0-27.105882 12.047059-27.105882 27.105882V733.364706c0 15.058824 12.047059 27.105882 27.105882 27.105882h862.870588c15.058824 0 27.105882-12.047059 27.105883-27.105882l-1.505883-536.094118zM234.917647 478.870588L406.588235 374.964706v51.2L296.658824 489.411765l109.929411 60.235294v51.2l-173.17647-103.905883v-18.070588zM627.952941 549.647059l109.929412-61.741177-109.929412-63.247058v-51.2l173.176471 103.905882v19.57647l-173.176471 103.905883V549.647059zM557.176471 643.011765c-10.541176 3.011765-22.588235-3.011765-25.6-15.058824L462.305882 368.941176c-3.011765-10.541176 3.011765-22.588235 15.058824-25.6s22.588235 3.011765 25.6 15.058824L572.235294 617.411765c3.011765 10.541176-4.517647 22.588235-15.058823 25.6z"  horiz-adv-x="1024" />

    
    <glyph glyph-name="icoxitongwending" unicode="&#58897;" d="M92.8 840C43.2 840 1.6 800 0 750.4v-89.6c1.6-51.2 43.2-91.2 92.8-89.6h838.4c51.2 0 92.8 40 92.8 89.6V750.4c-1.6 51.2-43.2 91.2-92.8 89.6H92.8z m873.6-97.6v-80c-3.2-24-24-41.6-48-43.2H100.8c-24 0-44.8 19.2-44.8 43.2v80C57.6 766.4 76.8 784 100.8 787.2h817.6c24 1.6 46.4-16 48-41.6v-3.2z m-91.2-83.2c25.6 0 44.8 22.4 43.2 46.4 0 25.6-22.4 44.8-46.4 43.2-24 0-43.2-20.8-43.2-44.8 0-24 20.8-44.8 46.4-44.8zM92.8 520C41.6 520 0 480 0 430.4v-89.6c1.6-51.2 43.2-91.2 92.8-89.6h838.4c51.2 0 92.8 40 92.8 89.6v89.6c-1.6 51.2-43.2 91.2-92.8 89.6H92.8z m873.6-99.2v-80c-3.2-24-24-41.6-48-43.2H100.8c-24 0-44.8 19.2-44.8 43.2v80c3.2 24 22.4 41.6 44.8 44.8h817.6c24 1.6 46.4-16 48-41.6v-3.2z m-91.2-81.6c25.6 0 44.8 22.4 43.2 46.4 0 25.6-22.4 44.8-46.4 43.2-24 0-43.2-20.8-43.2-44.8 0-25.6 20.8-44.8 46.4-44.8zM92.8 198.4c-51.2 0-92.8-40-92.8-89.6v-89.6c1.6-51.2 43.2-91.2 92.8-89.6h838.4c51.2 0 92.8 40 92.8 89.6v89.6c-1.6 51.2-43.2 91.2-92.8 89.6H92.8z m873.6-97.6v-80c-3.2-24-24-41.6-48-43.2H100.8c-24 0-44.8 19.2-44.8 43.2v80c3.2 24 22.4 41.6 44.8 44.8h817.6c24 1.6 46.4-16 48-41.6v-3.2z m-91.2-83.2c25.6 0 44.8 22.4 43.2 46.4 0 25.6-22.4 44.8-46.4 43.2-24 0-43.2-20.8-43.2-44.8 0-24 20.8-44.8 46.4-44.8z"  horiz-adv-x="1024" />

    
    <glyph glyph-name="icozijinanquan" unicode="&#58898;" d="M369.862687 432.907463l-44.322388-42.79403L489.074627 226.579104l244.537313 243.008956-42.79403 44.322388L489.074627 313.695522l-119.21194 119.211941zM894.089552 749.277612s-120.740299 4.585075-366.80597 139.080597l-15.283582 7.641791-15.283582-7.641791c-246.065672-134.495522-366.80597-139.080597-366.80597-139.080597h-30.567164v-400.429851c0-178.81791 103.928358-268.991045 221.61194-353.050746L512-128 703.044776-4.202985c116.155224 84.059701 221.61194 174.232836 221.61194 353.050746V749.277612h-30.567164z m-30.567164-403.486567c0-136.023881-68.776119-212.441791-194.101492-302.614926l-155.892538-100.871641-155.892537 100.871641C229.253731 134.877612 160.477612 209.767164 160.477612 345.791045V691.2c51.964179 7.641791 168.119403 36.680597 349.99403 134.495522 183.402985-97.814925 299.558209-126.853731 349.99403-134.495522l3.056716-345.408955z"  horiz-adv-x="1024" />

    
    <glyph glyph-name="icoshishiduizhang" unicode="&#58899;" d="M531.868657 358.01791H672.477612c12.226866-1.528358 24.453731 7.641791 24.453731 21.397015 1.528358 12.226866-7.641791 24.453731-21.397015 24.453732h-145.194029v97.814925h168.119402c13.755224 0 24.453731 12.226866 24.453732 25.98209 0 13.755224-10.698507 24.453731-24.453732 25.982089h-131.438805l105.456716 106.985075c9.170149 9.170149 9.170149 24.453731 0 33.62388s-24.453731 9.170149-33.623881 0l-128.382089-128.382089-128.38209 128.382089c-9.170149 9.170149-24.453731 9.170149-33.62388 0s-9.170149-24.453731 0-33.62388l105.456716-106.985075h-131.438806c-13.755224 0-24.453731-12.226866-24.453731-25.982089 0-13.755224 10.698507-24.453731 24.453731-25.98209h163.534328v-97.814925h-136.02388c-12.226866 1.528358-22.925373-9.170149-24.453731-21.397015s9.170149-22.925373 21.397014-24.453732h139.080597v-169.647761c0-12.226866 9.170149-24.453731 21.397015-24.453731h1.528359c13.755224 0 22.925373 10.698507 22.925373 24.453731V358.01791z m392.788059-218.555223V763.032836c0 73.361194-59.60597 132.967164-131.438806 132.967164H232.310448c-73.361194 0-132.967164-59.60597-132.967164-132.967164v-758.065672c0-73.361194 59.60597-132.967164 132.967164-132.967164h423.355224c4.585075 0 10.698507 1.528358 13.755224 4.585075 1.528358 0 1.528358 1.528358 3.056716 1.528358l244.537313 241.480597c6.113433 6.113433 9.170149 13.755224 7.641791 19.868657zM148.250746 4.967164V763.032836c0 45.850746 36.680597 84.059701 84.059702 84.059701h560.907462c45.850746 0 84.059701-38.208955 84.059702-84.059701V162.38806H764.179104c-73.361194 0-131.438806-59.60597-131.438805-132.967164v-108.513433H232.310448c-47.379104 0-84.059701 38.208955-84.059702 84.059701z m530.340299-50.435821v74.889553c0 45.850746 36.680597 84.059701 84.059701 84.059701H840.597015L678.591045-45.468657z"  horiz-adv-x="1024" />

    
    <glyph glyph-name="icozhinengsaoma" unicode="&#58900;" d="M992.623645 352.553937H31.51577C15.001889 352.553937 0.139396 367.41643 0.139396 383.930311s14.862493 31.376374 31.376374 31.376374h961.107875c16.513881 0 31.376374-14.862493 31.376374-31.376374s-14.862493-31.376374-31.376374-31.376374zM825.833447-128H659.043249c-16.513881 0-31.376374 14.862493-31.376374 31.376374s14.862493 31.376374 31.376374 31.376374H825.833447c74.312465 0 135.413824 61.10136 135.413824 135.413824v145.322153c0 16.513881 14.862493 31.376374 31.376374 31.376374s31.376374-14.862493 31.376374-31.376374V70.166572c0-108.991615-89.174957-198.166572-198.166572-198.166572z m-459.085892 0H198.305968C89.314354-128 0.139396-38.825043 0.139396 70.166572v146.973541c-1.651388 16.513881 11.559717 33.027762 29.724986 33.027762 16.513881 1.651388 33.027762-11.559717 33.027762-29.724986V70.166572c0-74.312465 61.10136-135.413824 135.413824-135.413824h168.441587c16.513881 0 31.376374-14.862493 31.376374-31.376374s-13.211105-31.376374-31.376374-31.376374z m625.87609 647.344136c-16.513881 0-31.376374 13.211105-31.376374 31.376374V697.694051c0 74.312465-61.10136 135.413824-135.413824 135.413824H659.043249c-16.513881-1.651388-33.027762 11.559717-33.027762 29.724986-1.651388 16.513881 11.559717 33.027762 29.724985 33.027762H825.833447c108.991615 0 198.166572-89.174957 198.166572-198.166572v-146.973541c0-16.513881-13.211105-31.376374-31.376374-31.376374z m-961.107875 0c-16.513881 0-31.376374 13.211105-31.376374 31.376374V697.694051C0.139396 806.685665 89.314354 895.860623 198.305968 895.860623h170.092975c16.513881 1.651388 33.027762-11.559717 33.027762-29.724986 1.651388-16.513881-11.559717-33.027762-29.724986-33.027762H198.305968c-74.312465 0-135.413824-61.10136-135.413824-135.413824v-146.973541c0-16.513881-13.211105-31.376374-31.376374-31.376374z"  horiz-adv-x="1024" />

    
    <glyph glyph-name="icozhuanyekefu" unicode="&#58901;" d="M909.552941-94.870588c-16.564706 150.588235-117.458824 280.094118-260.517647 331.294117 134.023529 73.788235 185.223529 240.941176 111.435294 376.470589-73.788235 134.023529-240.941176 185.223529-376.470588 111.435294s-185.223529-240.941176-111.435294-376.470588c25.6-46.682353 64.752941-85.835294 111.435294-111.435295-140.047059-51.2-240.941176-174.682353-259.011765-322.258823-1.505882-3.011765-3.011765-7.529412-3.011764-12.047059v-3.011765c0-9.035294 4.517647-18.070588 12.047058-22.588235 3.011765-3.011765 7.529412-4.517647 12.047059-4.517647h737.882353c15.058824 0 27.105882 12.047059 27.105883 27.105882V-97.882353s0 1.505882-1.505883 3.011765zM286.117647 481.882353c0 128 105.411765 230.4 231.905882 230.4s230.4-105.411765 228.894118-233.411765c-1.505882-126.494118-103.905882-228.894118-230.4-228.894117-128 0-231.905882 103.905882-230.4 231.905882z m197.270588-277.082353c22.588235-3.011765 45.176471-3.011765 67.764706 0 152.094118-15.058824 274.070588-129.505882 302.682353-278.588235H179.2c28.611765 149.082353 152.094118 263.529412 304.188235 278.588235z m427.670589 377.976471h-16.564706C885.458824 783.058824 716.8 896 512 896S140.047059 784.564706 131.011765 582.776471H112.941176c-16.564706 0-30.117647-13.552941-30.117647-31.62353V384c0-16.564706 13.552941-31.623529 30.117647-31.623529h30.117648c16.564706 0 30.117647 13.552941 30.117647 31.623529v25.6c0 1.505882 1.505882 3.011765 1.505882 6.023529 1.505882 43.670588 0 152.094118 0 152.094118C176.188235 752.941176 326.776471 850.823529 512 850.823529s335.811765-97.882353 335.811765-284.611764c0 0 1.505882-111.435294 0-149.082353 0-4.517647 0-9.035294 1.505882-13.552941V384c0-16.564706 13.552941-31.623529 30.117647-31.623529h30.117647c16.564706 0 30.117647 13.552941 30.117647 31.623529V551.152941c1.505882 18.070588-12.047059 31.623529-28.611764 31.62353z"  horiz-adv-x="1024" />

    
    <glyph glyph-name="icon-caiwu" unicode="&#58904;" d="M429.056-93.866667c-1.8432 0-3.618133 0.170667-5.461333 0.341334-10.9056 1.8432-271.6672 45.431467-379.921067 295.509333-9.608533 21.879467-18.3808 94.3616 7.867733 134.4512a64.580267 64.580267 0 0 0 54.749867 30.020267c29.218133 0 60.706133-17.5104 99.5328-55.1424a499.626667 499.626667 0 0 0 51.080533-60.142934c47.5648-62.754133 88.917333-117.469867 328.686934-132.608-11.554133 16.725333-22.306133 32.648533-27.835734 42.018134a83.9168 83.9168 0 0 0-2.338133 79.8208 63.146667 63.146667 0 0 0 56.797867 31.0784c29.4912 0 67.089067-15.581867 115.029333-47.616 0.187733 0 137.506133-61.269333 234.734933-81.220267a34.594133 34.594133 0 0 0 27.921067-34.4064v-167.099733a34.935467 34.935467 0 0 0-35.089067-35.003734z m-320.9216 323.157334c87.278933-201.5744 299.229867-248.064 324.0448-252.8768h487.850667l-0.1024 103.901866a1764.078933 1764.078933 0 0 0-229.410134 83.626667 213.1968 213.1968 0 0 1-73.540266 36.676267 10.939733 10.939733 0 0 1 1.160533-4.5568c10.478933-17.937067 51.285333-74.666667 65.9968-95.232a34.491733 34.491733 0 0 0 2.833067-37.0176 32.699733 32.699733 0 0 0-32.017067-18.773334c-336.981333 9.198933-393.796267 84.036267-454.212267 163.515734a414.122667 414.122667 0 0 1-44.168533 52.1728 134.126933 134.126933 0 0 1-47.650133 34.6624 130.048 130.048 0 0 1-0.785067-66.0992z m362.257067 22.186666v83.029334h-69.205334a27.665067 27.665067 0 1 0 0.187734 55.313066h69.256533v55.842134h-69.256533a27.8016 27.8016 0 1 0 0 55.586133h69.256533v27.665067c0 0.6144 0.170667 1.041067 0.170667 1.570133l-89.5488 89.634133a27.613867 27.613867 0 0 0 39.0656 39.048534l78.370133-78.506667 77.533867 77.4656a27.477333 27.477333 0 1 0 38.8608-38.8608l-89.3952-89.565867c0-0.3584 0.136533-0.785067 0.136533-0.955733v-27.835733h69.1712a27.6992 27.6992 0 0 0 0-55.3984h-69.307733v-55.586134h69.1712a27.665067 27.665067 0 0 0 0-55.313066h-69.1712v-83.063467a27.682133 27.682133 0 0 0-55.3472 0z m309.435733-2.542933a35.3792 35.3792 0 0 0-10.752 48.5888 321.348267 321.348267 0 1 1-592.384 172.373333 34.986667 34.986667 0 1 0-69.973333 0 391.2704 391.2704 0 1 0 721.373866-210.4832 35.2256 35.2256 0 0 0-29.5424-16.110933 34.218667 34.218667 0 0 0-18.722133 5.6832z"  horiz-adv-x="1024" />

    
    <glyph glyph-name="icon-qudao" unicode="&#58905;" d="M513.826133 793.7024a65.0752 65.0752 0 1 0-65.211733-65.0752 65.262933 65.262933 0 0 0 65.211733 65.0752z m0 68.164267a133.2224 133.2224 0 1 1 133.649067-133.2224 133.358933 133.358933 0 0 1-133.649067 133.2224m-346.094933-661.8624a66.2016 66.2016 0 0 0 32.426667-8.533334 65.160533 65.160533 0 0 0-32.187734-121.821866 66.2016 66.2016 0 0 0-32.426666 8.533333 65.160533 65.160533 0 0 0 32.187733 121.821867z m0 68.164266a133.2224 133.2224 0 1 1 115.677867-66.6624 133.358933 133.358933 0 0 1-115.677867 66.6624m688.657067-70.178133a65.109333 65.109333 0 0 0 32.068266-121.821867 66.184533 66.184533 0 0 0-32.426666-8.533333 65.2288 65.2288 0 0 0-56.558934 97.706667 64.426667 64.426667 0 0 0 24.3712 24.098133 67.208533 67.208533 0 0 0 32.529067 8.533333z m0 68.164267a133.393067 133.393067 0 1 1 66.7136-17.92 133.5808 133.5808 0 0 1-66.7136 17.92m53.572266 11.093333a15.803733 15.803733 0 0 0-2.2528 0.1024 34.133333 34.133333 0 0 0-31.965866 36.164267c0.529067 7.8848 0.750933 16.008533 0.750933 23.893333a362.0864 362.0864 0 0 1-195.771733 322.030933 34.133333 34.133333 0 1 0 31.5392 60.484267 431.0016 431.0016 0 0 0 232.5504-382.5152c0-9.386667-0.324267-18.875733-0.955734-28.381867a33.8432 33.8432 0 0 0-33.8944-31.778133m-794.811733 2.3552a34.133333 34.133333 0 0 0-34.133333 32.1024 423.082667 423.082667 0 0 0-0.750934 25.821867 430.3872 430.3872 0 0 0 65.109334 227.84 434.961067 434.961067 0 0 0 169.7792 155.733333 34.133333 34.133333 0 1 0 31.214933-60.586667 361.813333 361.813333 0 0 1-197.802667-323.089066c0-7.150933 0.2048-14.506667 0.648534-21.76a34.133333 34.133333 0 0 0-32.187734-35.9424c-0.529067 0-1.1776-0.1024-1.928533-0.1024m397.550933-373.486934a431.786667 431.786667 0 0 0-232.004266 67.310934 34.133333 34.133333 0 1 0 36.676266 57.4976 365.226667 365.226667 0 0 1 388.642134-1.0752 34.133333 34.133333 0 1 0 36.2496-57.7024 430.472533 430.472533 0 0 0-229.563734-66.030934"  horiz-adv-x="1024" />

    
    <glyph glyph-name="icon-tuandui" unicode="&#58906;" d="M382.378667 731.886933a164.573867 164.573867 0 1 0-165.546667-164.573866 165.256533 165.256533 0 0 0 165.546667 164.573866m0-390.826666a225.826133 225.826133 0 0 1 155.8528 390.912 30.958933 30.958933 0 0 1 30.395733 30.72 31.010133 31.010133 0 0 1-31.010133 30.907733h-144.896a31.3344 31.3344 0 0 1-3.413334-0.341333c-2.304 0-4.573867 0.3072-6.826666 0.3072a226.286933 226.286933 0 1 1 0-452.5568m0-10.24a382.020267 382.020267 0 0 1-382.378667-370.346667h62.122667a320.494933 320.494933 0 0 0 640.546133 0h61.986133a382.020267 382.020267 0 0 1-382.378666 370.346667m396.714666 49.169066a225.160533 225.160533 0 0 1 28.2112 352.017067 30.993067 30.993067 0 0 1 30.395734 30.72 31.044267 31.044267 0 0 1-31.0272 30.9248h-144.878934a26.5728 26.5728 0 0 1-3.413333-0.3584c-2.286933 0-4.573867 0.3584-6.826667 0.3584a30.856533 30.856533 0 1 1 0-61.713067 164.573867 164.573867 0 1 0 0-329.147733 30.856533 30.856533 0 1 1 0-61.713067 306.722133 306.722133 0 0 0 305.698134-360.004266h62.737066a365.226667 365.226667 0 0 1-240.896 398.916266"  horiz-adv-x="1024" />

    


  </font>
</defs>
</svg>
